<svg id="Warstwa_1" data-name="Warstwa 1" xmlns="http://www.w3.org/2000/svg" viewBox="0 0 1000 351"><defs><style>.cls-1{fill:#6d1e33;}.cls-2{fill:#ffc2d6;}</style></defs><rect class="cls-1" x="-0.34" y="-0.13" width="1000" height="351"/><path class="cls-2" d="M223.41,125.59c-9.91-14.27-23.61-15.21-37.34-9.91a41.55,41.55,0,0,0-8.47,4.39h0l0,0-.55.38a16.49,16.49,0,0,1-8.62,2.81h-.06a10.23,10.23,0,0,1-6-2.17,40.29,40.29,0,0,0-9.93-5.44c-13.72-5.3-27.43-4.36-37.34,9.91-7.11,10.23-14.82,38.13-11.46,57.95,1.92,11.32,5.79,19.26,17.12,13.16,6.2,15.81,14.92,22.23,36,26.83,4.85,1.05,7.56-3.39,9.08-8.73l.49-8.55a5.24,5.24,0,0,0-.36-3.22c-1.7-3.7-6.57-7.63-7.75-8.81a38.38,38.38,0,0,1-4.58-6.1c-2.55-4,0-11.14,4.52-12.6,4.22-1.38,13.46-2.93,20.83-.37,4.67,1.63,8.06,8.2,5.15,12.2l-1.44,2.31a29.85,29.85,0,0,1-5.74,6.73L172.73,200c-1,1.33-2.36,3.2-2.36,4.85l.76,10.68c1.53,5.33,4.25,9,9.11,7.94,21.75-4.75,30.63-11.33,36.56-27.34,12.07,7.08,16.1-1,18.07-12.63C238.23,163.72,230.52,135.82,223.41,125.59Z"/><path class="cls-2" d="M383,191.32c0,19.77-2.86,22.36-18.82,23.59-10.36.82-19.9,1-28.77,1-16.9,0-36.68-.14-42.95-.69-2.86-.27-4.22-1.5-4.36-4.9-.41-11.05-.41-25.91-.41-42.14,0-15.95,0-31.08.41-42.13.14-3.41,1.5-4.63,4.36-4.91,6.27-.54,26.05-.68,42.95-.68,8.87,0,18.41.14,28.77,1,16,1.22,18.82,3.81,18.82,23.58,0,18.28-2.18,21.68-17.18,22.78v.81C380.67,169.92,383,172.92,383,191.32Zm-54-45.26v11.72c0,2.05.41,2.73,1.37,2.73h8c2.32,0,3-.27,3.41-2.59a33.68,33.68,0,0,0,.55-6,32.3,32.3,0,0,0-.41-6c-.41-2.32-1.09-2.59-3.41-2.59h-8.18C329.4,143.33,329,144.15,329,146.06Zm0,32.45v11.72c0,2.05.41,2.73,1.37,2.73h8.18c2.32,0,3-.27,3.41-2.59a32.35,32.35,0,0,0,.41-6,33.68,33.68,0,0,0-.55-6c-.41-2.32-1.09-2.59-3.41-2.59h-8C329.4,175.78,329,176.6,329,178.51Z"/><path class="cls-2" d="M409.44,217.09c-16.23,0-21-5.31-21-23.58,0-16,0-39.82.14-48.55,0-3,1.91-3.68,4.09-4,2.45-.27,8.18-.41,14.45-.41s12,.14,14.46.41c2.18.27,3.95,1,4.09,4,.27,8.87.27,31.77.27,44.45,0,3.55,1.23,4.78,4.77,4.78,4.23,0,5.73-.82,5.73-7.64,0-13.09,0-32.72.27-41.59.14-3,1.91-3.68,4.09-4,2.45-.27,8.18-.41,14.45-.41s12,.14,14.46.41c2.18.27,4,1,4.09,4,.27,8.87.27,20.73.27,33.68,0,14.87,0,22.77-.27,32.86-.14,2.73-1.37,3.68-4.09,4-3.28.41-9.68.41-15.27.41a130.12,130.12,0,0,1-13.64-.41c-2.73-.28-4.09-1.23-4.09-4l-.27-12.68h-.68C432.21,214.64,426.48,217.09,409.44,217.09Z"/><path class="cls-2" d="M533,142.18c3-.41,9.68-.41,14.73-.41a144.44,144.44,0,0,1,14.45.41c2.73.27,4,1.23,4.09,4,.27,8.86.27,30.4.27,43.35s0,34.5-.27,43.36c-.14,3-1.91,3.82-4.09,4-2.45.13-8.18.41-14.45.41s-12.27-.28-14.73-.41c-2.18-.14-4.09-1-4.09-4v-13.5h-.68C526,233.26,516.47,238,503.25,238c-17.86,0-22.91-6-22.91-38.85s5.05-38.59,22.91-38.59c13.22,0,22.77,4.5,25,18.41h.68V146.14C528.88,143.41,530.24,142.45,533,142.18Zm-14.59,45.95c-.13,2.05-.27,5.59-.27,11.05s.14,9,.27,11c.27,3.14,1.5,4.5,4.91,4.5,4,0,5.45-1,5.59-5.73.14-4.22.14-7.22.14-9.81s0-5.6-.14-9.82c-.14-4.77-1.63-5.73-5.59-5.73C519.88,183.63,518.65,185,518.38,188.13Z"/><path class="cls-2" d="M625.42,142.18c3-.41,9.68-.41,14.72-.41a144.44,144.44,0,0,1,14.45.41c2.73.27,4,1.23,4.09,4,.28,8.86.28,30.4.28,43.35s0,34.5-.28,43.36c-.13,3-1.9,3.82-4.09,4-2.45.13-8.18.41-14.45.41s-12.27-.28-14.72-.41c-2.19-.14-4.1-1-4.1-4v-13.5h-.68C618.46,233.26,608.92,238,595.69,238c-17.86,0-22.91-6-22.91-38.85s5.05-38.59,22.91-38.59c13.23,0,22.77,4.5,24.95,18.41h.68V146.14C621.32,143.41,622.69,142.45,625.42,142.18Zm-14.59,45.95c-.14,2.05-.28,5.59-.28,11.05s.14,9,.28,11c.27,3.14,1.5,4.5,4.9,4.5,4,0,5.46-1,5.59-5.73.14-4.22.14-7.22.14-9.81s0-5.6-.14-9.82c-.13-4.77-1.63-5.73-5.59-5.73C612.33,183.63,611.1,185,610.83,188.13Z"/><path class="cls-2" d="M714.45,141c3.41-.41,10.36-.41,13.77-.41s11.59,0,15,.27,4.23,1.78,3.55,4.78l-14.19,67.49c-4.63,22.36-7.77,24.68-32.31,24.68-21.68,0-24.54-1.36-25.09-7-.27-2-.41-6.68-.41-9.4,0-4.23.68-4.91,5.32-4.91h17.18c3,0,4.36-1.09,5.18-6.14-6,0-16.63,0-22.5-.27-3.27-.14-4.63-1.36-5.31-4.5l-13-60c-.68-3,.14-4.5,3.55-4.78s11.32-.27,14.72-.27,10.64,0,14,.41c2,.27,3.27,1.09,3.54,3.14L704,192.28h.55l6.41-48.13C711.18,142.1,712.41,141.28,714.45,141Z"/><path class="cls-2" d="M754.37,156.69c-1.91-.41-3-1.5-3.14-4.23-.27-4.5-.27-10-.27-13.63s0-9.27.27-13.77c.14-2.73,1.23-3.82,3.14-4.23s9.41-.54,15.14-.54,13.36.13,15.13.54,3,1.5,3.14,4.23c.27,4.5.27,10.77.27,22.63,0,4.37,0,5.59-2.59,10.77l-13.91,26.86c-.95,1.78-1.91,2.19-3.95,1.78a37.57,37.57,0,0,1-5.05-1.78,33.69,33.69,0,0,1-4.5-2.18,3.13,3.13,0,0,1-1.36-4.22l9-21.68C760.51,157.24,756,157.1,754.37,156.69Z"/><path class="cls-2" d="M813.58,140.19c6.4-.41,14.59-.54,20.31-.54s13.91.13,20.32.54c18.54,1.23,22.36,5.46,22.36,22.5,0,2.32-.14,3.27-2.46,3.55-5.45.13-12.54.13-16.63.13s-12.82,0-15.54-.13c-2.19-.28-2.32-.41-2.59-2.32-.14-1.09-.14-2.46-.28-3.41-.27-2.32-1.63-3-5.18-3-3.82,0-5,.82-5,3V170.6c0,1.63.41,1.91,1.36,1.91,9.14,0,40.36,0,42.95.13,2.32.14,3.41,1.09,3.41,3.41v17.73c0,17-3.82,21.27-22.36,22.5-6.41.4-14.73.54-20.32.54s-13.91-.14-20.31-.54c-18.55-1.23-22.37-5.46-22.37-22.5,0-2.32.14-3.27,2.46-3.55,5.45-.13,12.54-.13,16.63-.13s12.82,0,15.55.13c2.18.28,2.32.41,2.59,2.32.13,1.09.13,2.46.27,3.41.27,2.32,1.5,3,5.18,3s5.05-.82,5.05-3V185.87c0-1.64-.41-1.91-1.37-1.91-9.27,0-40.36,0-43-.14-2.31,0-3.41-1.09-3.41-3.4V162.69C791.21,145.65,795,141.42,813.58,140.19Z"/></svg>