<svg id="Warstwa_1" data-name="Warstwa 1" xmlns="http://www.w3.org/2000/svg" viewBox="0 0 1000 1000"><defs><style>.cls-1{fill:#6d1e33;}.cls-2{fill:#ffc2d6;}.cls-3{fill:#ec4270;}</style></defs><rect class="cls-1" x="-0.34" y="-0.13" width="1000" height="1000"/><path class="cls-2" d="M559.84,346.7c-11-15.85-26.22-16.88-41.46-11a45.85,45.85,0,0,0-9.41,4.88h0l0,0-.61.42a18.32,18.32,0,0,1-9.57,3.12c-.32,0-.63,0-.93,0a10.82,10.82,0,0,1-5.73-2.3A45,45,0,0,0,481,335.7c-15.24-5.88-30.46-4.85-41.47,11C431.59,358.07,423,389,426.75,411.06c2.13,12.58,6.43,21.4,19,14.61,6.88,17.56,16.56,24.69,40,29.8,5.38,1.17,8.39-3.76,10.09-9.69l.54-9.5a5.84,5.84,0,0,0-.4-3.57c-1.89-4.11-7.29-8.48-8.61-9.79a42.41,42.41,0,0,1-5.08-6.78c-2.83-4.38.05-12.36,5-14,4.68-1.53,14.95-3.25,23.13-.4,5.18,1.81,8.95,9.1,5.72,13.55l-1.6,2.56a33.82,33.82,0,0,1-6.38,7.48l-4.64,4c-1.09,1.48-2.62,3.56-2.62,5.39l.85,11.86c1.69,5.93,4.72,10,10.11,8.82,24.15-5.27,34-12.58,40.6-30.36,13.41,7.86,17.88-1.11,20.07-14C576.31,389,567.74,358.07,559.84,346.7Z"/><path class="cls-3" d="M375.05,655.19c.08,1.36.88,1.76,3.2,1.76s3.11-.4,3.19-1.76c.08-1,.08-2.47.08-3.83,0-1.2.24-1.2,1.52-1.28,1.68-.16,6.56-.16,9-.16s6.55,0,9.51.16c1.52.08,1.68.88,1.68,2.4a44.76,44.76,0,0,1-1,8.07c-.88,4.24-2.4,5.35-7,5.91-4.23.48-10.95.72-16.86.72a143.82,143.82,0,0,1-16.87-.72c-4.55-.56-6-1.59-7-5.91a81.67,81.67,0,0,1-1.36-16,77.64,77.64,0,0,1,1.36-15.66c1-4.32,2.48-5.36,7-5.92a143.82,143.82,0,0,1,16.87-.72,143.63,143.63,0,0,1,16.86.72c4.56.56,6,1.6,7,5.92a71.77,71.77,0,0,1,1.36,13.51c0,3.11-.4,3.67-2.32,3.75-2.8.16-6.24.16-9.19.16H374.89C374.89,649.68,374.89,653.2,375.05,655.19Zm6.39-20.86c-.08-1.36-.95-1.76-3.19-1.76s-3.12.4-3.2,1.76-.08,3.2-.16,5.28h6.71C381.6,637.77,381.52,636,381.44,634.33Z"/><path class="cls-3" d="M434.68,622.9c2-.24,6.23-.24,8.23-.24s6.64,0,8.63.16,2.48,1,2.08,2.8L445.23,664a2.83,2.83,0,0,1-3.12,2.63c-4.15.16-9,.16-13.43.16s-9.27,0-13.42-.16c-1.92-.08-2.8-.8-3.2-2.63l-8.31-38.37c-.4-1.76.08-2.64,2.07-2.8s6.64-.16,8.64-.16,6.23,0,8.23.24c1.2.16,1.92.64,2.08,1.84L428.52,653h.32l3.76-28.22C432.76,623.54,433.48,623.06,434.68,622.9Z"/><path class="cls-3" d="M476.08,655.19c.08,1.36.88,1.76,3.2,1.76s3.12-.4,3.2-1.76c.08-1,.08-2.47.08-3.83,0-1.2.24-1.2,1.52-1.28,1.68-.16,6.55-.16,8.95-.16s6.55,0,9.51.16c1.52.08,1.68.88,1.68,2.4a44.76,44.76,0,0,1-1,8.07c-.88,4.24-2.4,5.35-7,5.91-4.24.48-10.95.72-16.87.72a143.63,143.63,0,0,1-16.86-.72c-4.56-.56-6-1.59-7-5.91a81.67,81.67,0,0,1-1.36-16,77.64,77.64,0,0,1,1.36-15.66c1-4.32,2.48-5.36,7-5.92a197.88,197.88,0,0,1,33.73,0c4.55.56,6,1.6,7,5.92a71.77,71.77,0,0,1,1.36,13.51c0,3.11-.4,3.67-2.32,3.75-2.8.16-6.23.16-9.19.16H475.92C475.92,649.68,475.92,653.2,476.08,655.19Zm6.4-20.86c-.08-1.36-1-1.76-3.2-1.76s-3.12.4-3.2,1.76-.08,3.2-.16,5.28h6.72C482.64,637.77,482.56,636,482.48,634.33Z"/><path class="cls-3" d="M545.78,621.94c9.52,0,12.31,3.12,12.31,13.83,0,9.35,0,23.34-.08,28.46,0,1.75-1.12,2.23-2.39,2.31-1.44.08-4.8.24-8.48.24s-6.95-.16-8.39-.24c-1.28-.08-2.32-.56-2.4-2.31-.16-5.2-.16-18.63-.16-26.06,0-2.08-.72-2.8-2.79-2.8-2.4,0-3.28.48-3.28,4.48,0,7.67,0,19.18-.16,24.38,0,1.75-1.12,2.23-2.4,2.31-1.44.08-5,.24-8.63.24s-6.88-.16-8.32-.24a2.19,2.19,0,0,1-2.39-2.31c-.16-5.2-.16-12.23-.16-19.51,0-7.59,0-14.31.16-19.5a2.19,2.19,0,0,1,2.39-2.32c1.44-.08,4.72-.24,8.32-.24,3.19,0,6.87,0,8.63.24,1.6.16,2.4.72,2.4,2.32l.16,7.43h.4C532.36,624,534.91,621.94,545.78,621.94Z"/><path class="cls-3" d="M590.78,652.56c3.6,0,4.08.4,4.08,6.15a46,46,0,0,1-.16,5.2c-.32,2.71-1.12,3.27-9.27,3.27-16.87,0-20.86-4.23-20.86-20.78v-9.35h-2.24c-2.64,0-3.2-.8-3.28-3-.08-1.2-.08-2.72-.08-4.23s0-3,.08-4.24c.08-2.16.64-3,3.28-3h2.24v-2c0-6.95,1.84-8.63,13.67-8.63,7,0,8.39,1.36,8.39,4.8v5.83h4.87c2.64,0,3.2.8,3.28,3,.08,1.28.08,2.72.08,4.24s0,3-.08,4.23c-.08,2.16-.64,3-3.28,3h-4.87V649.2C586.63,652.32,587,652.56,590.78,652.56Z"/><path class="cls-3" d="M609.41,622.42c3.76-.24,8.55-.32,11.91-.32s8.15.08,11.91.32c10.87.72,13.11,3.2,13.11,13.19,0,1.36-.08,1.92-1.44,2.08-3.2.08-7.36.08-9.75.08s-7.52,0-9.12-.08c-1.27-.16-1.35-.24-1.51-1.36-.08-.64-.08-1.44-.16-2-.16-1.36-1-1.76-3-1.76-2.24,0-3,.48-3,1.76v5.92c0,1,.24,1.12.8,1.12,5.36,0,23.66,0,25.18.08,1.36.08,2,.64,2,2v10.4c0,10-2.24,12.46-13.11,13.18-3.76.24-8.63.32-11.91.32s-8.15-.08-11.91-.32c-10.87-.72-13.11-3.19-13.11-13.18,0-1.36.08-1.92,1.44-2.08,3.2-.08,7.35-.08,9.75-.08s7.51,0,9.11.08c1.28.16,1.36.24,1.52,1.36.08.64.08,1.43.16,2,.16,1.36.88,1.76,3,1.76s3-.48,3-1.76V649.2c0-1-.24-1.12-.8-1.12-5.44,0-23.66,0-25.18-.08a1.75,1.75,0,0,1-2-2V635.61C596.3,625.62,598.54,623.14,609.41,622.42Z"/><path class="cls-2" d="M278.51,538c0,22-3.18,24.84-20.9,26.2-11.51.91-22.11,1.06-32,1.06-18.77,0-40.73-.15-47.7-.76-3.18-.3-4.69-1.66-4.84-5.45-.46-12.26-.46-28.77-.46-46.79,0-17.72,0-34.52.46-46.79.15-3.78,1.66-5.15,4.84-5.45,7-.61,28.93-.76,47.7-.76,9.84,0,20.44.15,32,1.06,17.72,1.37,20.9,4.24,20.9,26.2,0,20.29-2.42,24.08-19.08,25.29v.91C275.94,514.23,278.51,517.56,278.51,538Zm-60-50.27v13c0,2.27.45,3,1.51,3H229c2.58,0,3.34-.3,3.79-2.88a37.68,37.68,0,0,0,.6-6.66,36.31,36.31,0,0,0-.45-6.66c-.45-2.58-1.21-2.88-3.79-2.88h-9.08C219,484.7,218.55,485.61,218.55,487.73Zm0,36v13c0,2.27.45,3,1.51,3h9.08c2.58,0,3.34-.3,3.79-2.88a36.25,36.25,0,0,0,.45-6.66,37.76,37.76,0,0,0-.6-6.66c-.45-2.58-1.21-2.88-3.79-2.88h-8.93C219,520.74,218.55,521.65,218.55,523.77Z"/><path class="cls-2" d="M307.89,566.62c-18,0-23.32-5.9-23.32-26.19,0-17.72,0-44.22.15-53.91,0-3.33,2.12-4.09,4.54-4.39,2.73-.3,9.09-.46,16.05-.46s13.33.16,16.05.46c2.42.3,4.39,1.06,4.55,4.39.3,9.84.3,35.28.3,49.36,0,3.94,1.36,5.3,5.3,5.3,4.69,0,6.36-.9,6.36-8.48,0-14.53,0-36.34.3-46.18.15-3.33,2.12-4.09,4.54-4.39,2.73-.3,9.09-.46,16.05-.46s13.33.16,16.06.46c2.42.3,4.39,1.06,4.54,4.39.3,9.84.3,23,.3,37.4,0,16.51,0,25.29-.3,36.49-.15,3-1.52,4.09-4.54,4.4-3.64.45-10.76.45-17,.45a146.21,146.21,0,0,1-15.15-.45c-3-.31-4.54-1.37-4.54-4.4l-.3-14.08h-.76C333.17,563.9,326.81,566.62,307.89,566.62Z"/><path class="cls-2" d="M445.07,483.43c3.34-.46,10.76-.46,16.36-.46a158.81,158.81,0,0,1,16.05.46c3,.3,4.39,1.36,4.54,4.39.31,9.84.31,33.77.31,48.15s0,38.31-.31,48.16c-.15,3.33-2.12,4.24-4.54,4.39-2.73.15-9.09.45-16.05.45s-13.63-.3-16.36-.45c-2.42-.15-4.54-1.06-4.54-4.39v-15h-.75c-2.43,15.45-13,20.75-27.72,20.75-19.83,0-25.44-6.66-25.44-43.16s5.61-42.85,25.44-42.85c14.69,0,25.29,5,27.72,20.44h.75V487.82C440.53,484.79,442.05,483.73,445.07,483.43Zm-16.2,51c-.15,2.27-.3,6.21-.3,12.26s.15,10,.3,12.27c.31,3.48,1.67,5,5.45,5,4.4,0,6.06-1.06,6.21-6.36.15-4.7.15-8,.15-10.91s0-6.21-.15-10.9c-.15-5.3-1.81-6.36-6.21-6.36C430.54,529.46,429.18,531,428.87,534.46Z"/><path class="cls-2" d="M547.74,483.43c3.33-.46,10.75-.46,16.35-.46a159.12,159.12,0,0,1,16.06.46c3,.3,4.39,1.36,4.54,4.39.3,9.84.3,33.77.3,48.15s0,38.31-.3,48.16c-.15,3.33-2.12,4.24-4.54,4.39-2.73.15-9.09.45-16.06.45s-13.62-.3-16.35-.45c-2.42-.15-4.54-1.06-4.54-4.39v-15h-.76c-2.42,15.45-13,20.75-27.71,20.75-19.84,0-25.44-6.66-25.44-43.16s5.6-42.85,25.44-42.85c14.69,0,25.29,5,27.71,20.44h.76V487.82C543.2,484.79,544.71,483.73,547.74,483.43Zm-16.2,51c-.15,2.27-.31,6.21-.31,12.26s.16,10,.31,12.27c.3,3.48,1.66,5,5.45,5,4.39,0,6.06-1.06,6.21-6.36.15-4.7.15-8,.15-10.91s0-6.21-.15-10.9c-.15-5.3-1.82-6.36-6.21-6.36C533.2,529.46,531.84,531,531.54,534.46Z"/><path class="cls-2" d="M646.62,482.13c3.78-.46,11.51-.46,15.29-.46s12.87,0,16.66.31,4.69,2,3.94,5.3l-15.75,75c-5.15,24.84-8.63,27.41-35.89,27.41-24.08,0-27.25-1.51-27.86-7.72-.3-2.27-.45-7.42-.45-10.45,0-4.7.75-5.45,5.9-5.45h19.08c3.33,0,4.85-1.21,5.75-6.82-6.66,0-18.47,0-25-.3-3.64-.15-5.15-1.51-5.91-5L588,487.28c-.76-3.33.15-5,3.94-5.3s12.56-.31,16.35-.31,11.81,0,15.6.46c2.27.3,3.63,1.21,3.93,3.48L635,539.06h.61l7.11-53.45C643,483.34,644.35,482.43,646.62,482.13Z"/><path class="cls-2" d="M691,499.54c-2.12-.45-3.33-1.66-3.48-4.69-.3-5-.3-11.06-.3-15.15s0-10.29.3-15.29c.15-3,1.36-4.24,3.48-4.69,2-.46,10.45-.61,16.81-.61s14.84.15,16.81.61,3.33,1.66,3.48,4.69c.31,5,.31,12,.31,25.14,0,4.84,0,6.21-2.88,12L710,531.34c-1.06,2-2.12,2.42-4.39,2a40.22,40.22,0,0,1-5.6-2,37.48,37.48,0,0,1-5-2.42,3.49,3.49,0,0,1-1.51-4.7l10-24.07C697.77,500.15,692.77,500,691,499.54Z"/><path class="cls-2" d="M756.7,481.22c7.12-.45,16.21-.61,22.57-.61s15.44.16,22.56.61c20.59,1.36,24.83,6.06,24.83,25,0,2.58-.15,3.64-2.72,3.94-6.06.15-13.93.15-18.48.15s-14.23,0-17.26-.15c-2.42-.3-2.57-.45-2.88-2.57-.15-1.21-.15-2.73-.3-3.79-.3-2.57-1.82-3.33-5.75-3.33-4.24,0-5.61.91-5.61,3.33V515c0,1.81.46,2.12,1.52,2.12,10.14,0,44.82,0,47.7.15,2.57.15,3.78,1.21,3.78,3.78v19.69c0,18.93-4.24,23.62-24.83,25-7.12.46-16.35.61-22.56.61s-15.45-.15-22.57-.61c-20.59-1.36-24.83-6.05-24.83-25,0-2.57.15-3.64,2.73-3.94,6-.15,13.93-.15,18.47-.15s14.23,0,17.26.15c2.43.3,2.58.46,2.88,2.58.15,1.21.15,2.72.3,3.78.31,2.58,1.67,3.33,5.76,3.33s5.6-.9,5.6-3.33V532c0-1.82-.45-2.12-1.52-2.12-10.29,0-44.82,0-47.69-.15-2.58,0-3.79-1.22-3.79-3.79V506.2C731.87,487.28,736.11,482.58,756.7,481.22Z"/></svg>