<svg width="175" height="32" viewBox="0 0 175 32" fill="none" xmlns="http://www.w3.org/2000/svg">
<path fill-rule="evenodd" clip-rule="evenodd" d="M45.128 0.714996C43.739 0.714996 32.952 0.732996 27.569 14.995C23.472 25.837 15.866 25.618 15.569 25.618L15.376 25.611C10.025 25.611 6.004 21.298 6.004 15.997C6.004 10.697 10.025 6.385 15.376 6.385C17.843 6.385 20.19 7.302 21.993 8.967L25.392 4.426C22.605 2.038 19.077 0.714996 15.376 0.714996C6.659 0.714996 0 7.031 0 15.997C0 24.665 6.405 31.279 15.311 31.279C15.382 31.279 15.479 31.285 15.601 31.285C17.794 31.285 27.766 30.517 32.871 17.001C36.965 6.158 44.581 6.383 44.872 6.379L45.064 6.385C50.416 6.385 54.467 10.697 54.467 15.997C54.467 21.298 50.416 25.611 45.064 25.611L44.872 25.618C44.826 25.614 40.531 25.75 36.674 21.476L33.767 26.598C38.806 31.239 44.187 31.279 45.123 31.279C53.889 31.279 60.439 25.005 60.439 15.997C60.439 7.199 54.185 0.714996 45.128 0.714996Z" fill="#FB9500"/>
<path fill-rule="evenodd" clip-rule="evenodd" d="M79.413 6.56999H72.319V16.729H79.559C83.252 16.729 85.487 15.076 85.487 11.673C85.487 8.32299 83.204 6.56999 79.413 6.56999ZM66.439 1.42099H79.609C86.994 1.42099 91.562 5.06499 91.562 11.43C91.562 15.757 89.425 18.723 86.07 20.326V20.764L93.02 29.995V30.579H86.364L79.9 21.686H72.319V30.579H66.439V1.42099Z" fill="#242424"/>
<path fill-rule="evenodd" clip-rule="evenodd" d="M104.899 6.56999V25.426H110.098C115.737 25.426 119.916 22.124 119.916 15.999C119.916 9.87699 115.737 6.56999 110.098 6.56999H104.899ZM110.488 30.579H99.02V1.42099H110.488C120.061 1.42099 125.991 7.44599 125.991 15.999C125.991 24.552 120.061 30.579 110.488 30.579Z" fill="#242424"/>
<path fill-rule="evenodd" clip-rule="evenodd" d="M131.991 30.5795H137.871V1.4205H131.991V30.5795Z" fill="#242424"/>
<path fill-rule="evenodd" clip-rule="evenodd" d="M156.051 1.4425L143.871 30.5575H150.376L151.888 26.5975H166.184L167.694 30.5575H174.197L162.018 1.4425H156.051ZM159.035 7.86151L164.524 22.2465H153.545L159.035 7.86151Z" fill="#242424"/>
</svg>
