<svg width="302" height="58" viewBox="0 0 302 58" fill="none" xmlns="http://www.w3.org/2000/svg">
<path d="M96.9853 36.3619H89.9527V4.51687C89.9527 3.77986 89.6599 3.07304 89.1388 2.55189C88.6177 2.03075 87.9108 1.73798 87.1738 1.73798C86.4368 1.73798 85.73 2.03075 85.2089 2.55189C84.6877 3.07304 84.3949 3.77986 84.3949 4.51687V39.1364C84.3949 39.501 84.4668 39.8621 84.6065 40.1989C84.7461 40.5358 84.9508 40.8418 85.2088 41.0995C85.4668 41.3571 85.7731 41.5614 86.1101 41.7006C86.4471 41.8399 86.8083 41.9113 87.1729 41.9108H96.9853C97.361 41.9299 97.7367 41.8724 98.0895 41.7417C98.4423 41.6111 98.7648 41.4101 99.0375 41.1509C99.3102 40.8918 99.5273 40.5798 99.6757 40.2341C99.824 39.8884 99.9005 39.5161 99.9005 39.1399C99.9005 38.7638 99.824 38.3915 99.6757 38.0458C99.5273 37.7001 99.3102 37.3881 99.0375 37.129C98.7648 36.8698 98.4423 36.6688 98.0895 36.5382C97.7367 36.4075 97.361 36.35 96.9853 36.3691V36.3619Z" fill="#141414"/>
<path d="M77.7637 1.73697C77.0264 1.73744 76.3195 2.0304 75.798 2.55156C75.2765 3.07272 74.9831 3.77949 74.9821 4.51675V31.7247L49.6405 2.68799C49.3754 2.38946 49.05 2.15063 48.6857 1.98729C48.3215 1.82396 47.9267 1.73985 47.5275 1.74054C47.2005 1.74183 46.8765 1.80239 46.5711 1.9193C46.0416 2.11878 45.5854 2.47458 45.2629 2.93946C44.9404 3.40435 44.767 3.95633 44.7656 4.52211V39.1363C44.7562 39.5071 44.8211 39.8761 44.9565 40.2215C45.0919 40.5669 45.2951 40.8816 45.5541 41.1473C45.8131 41.4129 46.1226 41.624 46.4644 41.7681C46.8063 41.9123 47.1735 41.9865 47.5445 41.9865C47.9154 41.9865 48.2827 41.9123 48.6245 41.7681C48.9663 41.624 49.2759 41.4129 49.5348 41.1473C49.7938 40.8816 49.997 40.5669 50.1324 40.2215C50.2678 39.8761 50.3328 39.5071 50.3234 39.1363V11.9265L75.6686 40.9614C75.9292 41.2617 76.2513 41.5023 76.6131 41.667C76.9749 41.8317 77.3679 41.9167 77.7655 41.916C78.0986 41.9185 78.4292 41.8578 78.7397 41.7373C79.2682 41.537 79.7234 41.1812 80.0454 40.7168C80.3675 40.2524 80.5411 39.7013 80.5435 39.1363V4.51675C80.543 3.77965 80.25 3.07287 79.7288 2.55167C79.2076 2.03046 78.5008 1.73744 77.7637 1.73697Z" fill="#141414"/>
<path d="M20.6241 1.20293C16.5446 1.20328 12.5568 2.41335 9.16507 4.68012C5.77333 6.94689 3.12994 10.1685 1.5692 13.9377C0.00845897 17.7068 -0.399535 21.8541 0.396809 25.8551C1.19315 29.8561 3.15807 33.5311 6.04307 36.4153C8.92808 39.2996 12.6036 41.2635 16.6048 42.0588C20.606 42.8541 24.7532 42.4451 28.5219 40.8833C32.2906 39.3216 35.5116 36.6774 37.7775 33.2851C40.0433 29.8927 41.2524 25.9047 41.2517 21.8252C41.245 16.3569 39.0695 11.1146 35.2023 7.24847C31.3352 3.38233 26.0923 1.20813 20.6241 1.20293ZM20.6241 36.895C17.644 36.895 14.7308 36.0113 12.2529 34.3557C9.77499 32.7001 7.84368 30.3469 6.70316 27.5937C5.56264 24.8405 5.26414 21.8109 5.8454 18.888C6.42666 15.9651 7.86157 13.2803 9.9687 11.1729C12.0758 9.06551 14.7605 7.63028 17.6833 7.04867C20.6061 6.46706 23.6357 6.7652 26.3891 7.9054C29.1425 9.04559 31.4959 10.9766 33.1518 13.4543C34.8077 15.932 35.6917 18.8451 35.6921 21.8252C35.6883 25.8205 34.0996 29.6511 31.2747 32.4764C28.4498 35.3016 24.6194 36.8908 20.6241 36.895Z" fill="#141414"/>
<path d="M166.62 1.75487C165.883 1.75628 165.178 2.04948 164.658 2.5702C164.137 3.09092 163.844 3.79669 163.843 4.53287V39.1184C163.843 39.8552 164.136 40.5618 164.657 41.0827C165.178 41.6037 165.885 41.8964 166.621 41.8964C167.358 41.8964 168.065 41.6037 168.586 41.0827C169.107 40.5618 169.399 39.8552 169.399 39.1184V4.53287C169.399 4.1679 169.328 3.80652 169.188 3.46936C169.048 3.1322 168.843 2.82588 168.585 2.56789C168.327 2.30991 168.021 2.10532 167.683 1.96581C167.346 1.82631 166.985 1.75463 166.62 1.75487Z" fill="#141414"/>
<path d="M193.474 1.20293C189.394 1.20257 185.406 2.41205 182.014 4.67838C178.622 6.94472 175.978 10.1661 174.417 13.9352C172.855 17.7042 172.447 21.8516 173.243 25.8529C174.039 29.8541 176.003 33.5294 178.888 36.4141C181.773 39.2987 185.448 41.263 189.45 42.0586C193.451 42.8542 197.598 42.4453 201.367 40.8837C205.136 39.3221 208.357 36.6779 210.623 33.2854C212.89 29.893 214.099 25.9048 214.098 21.8252C214.091 16.3577 211.916 11.1162 208.049 7.25025C204.183 3.38432 198.941 1.20955 193.474 1.20293ZM193.474 36.895C190.493 36.8961 187.58 36.0132 185.101 34.3581C182.622 32.7029 180.69 30.3499 179.549 27.5966C178.408 24.8432 178.109 21.8133 178.689 18.89C179.27 15.9667 180.705 13.2813 182.813 11.1735C184.92 9.06575 187.605 7.63026 190.528 7.04863C193.451 6.46699 196.481 6.76533 199.235 7.90591C201.988 9.04649 204.342 10.9781 205.998 13.4564C207.653 15.9346 208.537 18.8483 208.537 21.8288C208.532 25.8225 206.944 29.6514 204.12 32.4757C201.296 35.3001 197.468 36.8893 193.474 36.895Z" fill="#141414"/>
<path d="M159.74 26.5909L159.702 26.2333C159.095 23.9902 157.698 22.0416 155.77 20.7453L155.371 20.461L155.181 20.3359C154.965 20.1822 154.752 20.0302 154.524 19.8819C155.633 18.2321 156.344 16.3467 156.598 14.3748C156.853 12.403 156.645 10.399 155.991 8.52137C155.289 6.49104 153.962 4.73476 152.202 3.5035C150.441 2.27225 148.336 1.62903 146.188 1.66576H145.927C144.558 1.57468 143.186 1.77361 141.899 2.24956C140.613 2.72551 139.441 3.46774 138.462 4.42767C137.102 5.89603 136.366 7.83472 136.408 9.83529V39.2099C136.408 39.5747 136.48 39.9358 136.62 40.2727C136.761 40.6095 136.966 40.9155 137.224 41.1731C137.482 41.4308 137.789 41.635 138.126 41.7742C138.463 41.9134 138.824 41.9847 139.189 41.9843H147.302C152.091 41.6518 155.644 40.0483 157.868 37.2256C159.598 34.938 160.399 32.081 160.11 29.2277C160.11 28.3358 159.986 27.4482 159.74 26.5909ZM142.557 8.19066C143.517 7.45268 144.722 7.10699 145.927 7.22355H146.284C147.276 7.2064 148.247 7.50804 149.055 8.08408C149.862 8.66012 150.463 9.48013 150.77 10.4234C151.072 11.3442 151.188 12.3162 151.11 13.2823C151.031 14.2484 150.761 15.1891 150.314 16.0491L150.167 16.2601C149.554 17.5275 148.034 18.2158 145.686 18.3034H145.396C144.068 18.3034 142.875 18.3212 141.96 18.3427V9.69765C141.97 9.13982 142.183 8.60436 142.557 8.19066ZM153.462 33.8219C152.623 34.6708 151.619 35.3395 150.512 35.7874C149.406 36.2352 148.22 36.4527 147.026 36.4265H141.969V23.9452C143.029 23.9344 144.35 23.9112 145.807 23.8665H146.846C148.818 23.7693 150.778 24.2362 152.495 25.2126C153.107 25.6732 153.61 26.2642 153.966 26.9428C154.322 27.6214 154.523 28.3707 154.554 29.1365C154.545 29.3377 154.554 29.5395 154.583 29.7389C154.733 31.1909 154.335 32.6466 153.467 33.8201L153.462 33.8219Z" fill="#141414"/>
<path d="M108.952 24.8325C97.4518 21.0785 99.4898 5.33468 99.5863 4.66432C99.6851 3.93473 99.4911 3.19569 99.0465 2.60878C98.602 2.02188 97.9432 1.63486 97.2141 1.53237C97.0891 1.51506 96.963 1.5067 96.8369 1.50734C96.1678 1.50917 95.5216 1.75105 95.0157 2.189C94.5098 2.62696 94.1779 3.2319 94.0803 3.89384C93.0524 11.1499 94.4826 25.9641 107.227 30.1204C107.506 30.213 107.798 30.2601 108.092 30.2598C108.753 30.2588 109.392 30.0223 109.895 29.5926C110.397 29.163 110.73 28.5683 110.833 27.9154C110.937 27.2625 110.804 26.594 110.459 26.03C110.115 25.466 109.58 25.0433 108.952 24.8379V24.8325Z" fill="#141414"/>
<path d="M129.854 10.3042C129.798 10.3042 129.588 10.2881 129.243 10.2881C125.113 10.256 121.107 11.6888 117.934 14.3318C116.264 15.9078 114.934 17.8083 114.024 19.9167C113.115 22.0251 112.646 24.2971 112.646 26.5932V39.3713C112.664 40.0966 112.965 40.7859 113.485 41.2924C114.004 41.7989 114.701 42.0823 115.427 42.0823C116.152 42.0823 116.849 41.7989 117.368 41.2924C117.888 40.7859 118.189 40.0966 118.207 39.3713V26.7398C118.196 25.2118 118.49 23.6969 119.074 22.2845C119.657 20.8722 120.517 19.591 121.604 18.5166C123.118 17.2349 124.952 16.3895 126.91 16.0711C126.418 19.3834 124.727 22.3998 122.158 24.5481C121.695 24.901 121.356 25.3909 121.188 25.948C121.02 26.5051 121.032 27.101 121.223 27.6507C121.414 28.2005 121.773 28.676 122.25 29.0097C122.726 29.3433 123.296 29.518 123.878 29.5088C124.479 29.5132 125.064 29.319 125.544 28.9565C127.919 27.0212 129.79 24.5387 130.995 21.722C132.201 18.9052 132.705 15.8382 132.466 12.7837C132.396 12.1273 132.095 11.517 131.617 11.0626C131.138 10.6082 130.513 10.3393 129.854 10.3042Z" fill="#141414"/>
<path d="M262.505 57.2134C253.156 57.2134 257.081 35.3201 257.081 35.3201L254.268 38.4056C252.668 40.1933 250.667 42.6477 248.306 42.4171C244.437 42.0381 244.042 38.4682 244.069 35.7045V35.1986L243.724 35.5686C239.738 39.859 236.438 42.0292 233.915 42.0292C231.965 42.0292 230.451 40.6795 229.511 37.9855C227.473 32.1346 230.471 12.0736 234.105 1.87512C234.295 1.31871 234.658 0.83728 235.14 0.500483C235.622 0.163686 236.198 -0.0110124 236.786 0.00166679C237.188 -0.0126709 237.588 0.065647 237.955 0.230561C238.321 0.395474 238.645 0.64256 238.901 0.952692C239.087 1.22469 239.204 1.53795 239.242 1.86533C239.279 2.19271 239.237 2.52434 239.117 2.83151C236.491 10.7036 234.803 18.8579 234.087 27.1256C234.087 27.1256 233.356 34.6837 234.319 36.7932C235.151 38.7596 245.75 24.9786 245.75 24.9786C246.275 23.2583 246.906 21.5718 247.637 19.9285C247.799 19.5129 248.083 19.1561 248.452 18.9049C248.82 18.6538 249.256 18.5202 249.702 18.5217C250.17 18.5326 250.628 18.6557 251.038 18.8806C251.449 19.1056 251.799 19.4257 252.06 19.8141C252.282 20.1541 252.413 20.5458 252.439 20.9512C252.465 21.3566 252.385 21.7618 252.208 22.1273C250.93 24.8982 248.181 34.5175 249.119 36.5447C249.899 36.2962 259.47 24.0312 259.47 24.0312C261.107 18.0855 262.882 12.8262 265.278 6.45327C265.405 6.04271 265.662 5.68445 266.01 5.43212C266.358 5.1798 266.779 5.04698 267.208 5.05355C267.669 5.06636 268.12 5.18845 268.524 5.40975C268.928 5.63105 269.274 5.94521 269.532 6.32635C269.772 6.67841 269.919 7.08536 269.96 7.50944C270.001 7.93351 269.933 8.36098 269.765 8.75218C267.328 15.2878 265.519 20.6936 263.855 26.9057C265.215 28.1309 266.995 28.7835 268.824 28.7273C270.145 28.6916 271.439 28.3521 272.607 27.7352C273.775 27.1182 274.785 26.2404 275.559 25.1699C277.167 19.3118 282.005 14.857 285.948 14.6228C289.443 14.4154 292.407 20.1037 289.536 25.5507C288.606 27.3056 287.274 28.8152 285.647 29.9556C284.021 31.096 282.148 31.8348 280.181 32.1113C280.181 32.1113 280.223 35.2004 282.949 34.9876C284.845 34.8393 292.046 31.3051 297.03 21.7108C297.246 21.314 297.57 20.9861 297.964 20.7648C298.358 20.5435 298.806 20.4377 299.257 20.4595C299.75 20.4523 300.236 20.5717 300.67 20.8061C301.103 21.0405 301.469 21.3821 301.733 21.7984C301.918 22.13 302.006 22.5069 301.988 22.8861C301.969 23.2653 301.844 23.6317 301.628 23.9436C297.284 31.3033 290.557 40.0771 283.179 40.0771C275.448 40.2272 275.144 32.0988 275.144 32.0988C273.044 33.3107 270.626 33.8561 268.21 33.663C269.004 37.5805 269.238 41.5908 268.905 45.5741C268.689 48.6041 266.901 57.2134 262.505 57.2134ZM262.432 33.8078C260.709 40.7546 261.293 50.6814 262.319 49.8966C265.417 45.5759 263.118 35.0395 262.814 33.7953L262.432 33.8078ZM285.012 20.2968C284.248 20.2324 282.525 21.5481 281.815 22.3865C280.696 23.7668 280.132 25.5157 280.235 27.29C281.833 26.668 283.253 25.6617 284.37 24.3601C285.203 23.2625 286.452 20.4183 285.008 20.295L285.012 20.2968ZM252.119 12.9478C251.565 12.6267 251.145 12.116 250.937 11.5099C250.73 10.9039 250.748 10.2432 250.989 9.64958C251.29 9.02152 251.656 8.42708 252.081 7.87624C252.201 7.55011 252.39 7.25413 252.636 7.00923C252.882 6.76434 253.179 6.57651 253.506 6.45901C253.833 6.34152 254.181 6.29724 254.527 6.3293C254.873 6.36136 255.207 6.46898 255.507 6.64455C258.504 8.36248 255.864 11.237 255.507 11.8108C255.07 12.4079 253.821 13.9721 252.117 12.946L252.119 12.9478Z" fill="#141414"/>
<path d="M219.374 42.454C221.029 42.454 222.37 41.1126 222.37 39.4579C222.37 37.8032 221.029 36.4618 219.374 36.4618C217.719 36.4618 216.378 37.8032 216.378 39.4579C216.378 41.1126 217.719 42.454 219.374 42.454Z" fill="#141414"/>
</svg>
